<svg height="512pt" viewBox="0 0 512 512" width="512pt" xmlns="http://www.w3.org/2000/svg"><path d="m256 0c-141.152344 0-256 114.847656-256 256s114.847656 256 256 256 256-114.847656 256-256-114.847656-256-256-256zm0 0" fill="#fdd55b"/><path d="m256 21.332031c-129.398438 0-234.667969 105.269531-234.667969 234.667969s105.269531 234.667969 234.667969 234.667969 234.667969-105.269531 234.667969-234.667969-105.269531-234.667969-234.667969-234.667969zm0 0" fill="#fedf84"/><path d="m458.667969 256c0 111.929688-90.738281 202.667969-202.667969 202.667969s-202.667969-90.738281-202.667969-202.667969 90.738281-202.667969 202.667969-202.667969 202.667969 90.738281 202.667969 202.667969zm0 0" fill="#f2f2f2"/><g fill="#fa5419"><path d="m256 42.667969c-117.632812 0-213.332031 95.699219-213.332031 213.332031s95.699219 213.332031 213.332031 213.332031c82.441406 0 158.324219-48.265625 193.300781-122.964843.085938-.191407.171875-.382813.246094-.585938l9.097656-22.945312c7.09375-21.503907 10.6875-43.988282 10.6875-66.835938 0-117.632812-95.699219-213.332031-213.332031-213.332031zm173.84375 294.933593c-8.042969 17.109376-18.503906 32.648438-30.8125 46.34375l-14.816406-14.816406-15.085938 15.085938 14.742188 14.730468c-26.816406 23.890626-60.019532 40.105469-95.871094 46.226563v-18.503906h-21.332031v20.949219c-3.542969.191406-7.09375.382812-10.667969.382812-3.605469 0-7.113281-.339844-10.667969-.542969v-20.789062h-21.332031v18.441406c-36.457031-6.15625-69.375-22.570313-95.796875-46.230469l14.667969-14.664062-15.085938-15.085938-14.664062 14.667969c-28.203125-31.5-46.089844-72.246094-48.578125-117.128906h20.789062v-21.335938h-20.789062c2.488281-44.882812 20.375-85.628906 48.578125-117.128906l14.664062 14.667969 15.085938-15.085938-14.667969-14.664062c26.421875-23.660156 59.339844-40.074219 95.796875-46.230469v18.441406h21.332031v-20.789062c3.554688-.203125 7.0625-.542969 10.667969-.542969s7.113281.339844 10.667969.542969v20.789062h21.332031v-18.441406c36.457031 6.15625 69.375 22.570313 95.796875 46.230469l-14.667969 14.664062 15.085938 15.085938 14.664062-14.667969c28.203125 31.5 46.089844 72.246094 48.578125 117.128906h-20.789062v21.335938h20.917969c-.917969 16.875-3.882813 33.394531-8.972657 48.882812zm0 0"/><path d="m256 240.917969-77.792969-77.792969-15.082031 15.082031 77.792969 77.792969-13.792969 13.792969 15.082031 15.082031 13.792969-13.792969 13.792969 13.792969 15.082031-15.082031-13.792969-13.792969 99.125-99.125-15.082031-15.082031zm0 0"/></g></svg>