<svg height="512" viewBox="0 0 64 64" width="512" xmlns="http://www.w3.org/2000/svg"><g id="Insurrance_package" data-name="Insurrance package"><path d="m10 3h44a2 2 0 0 1 2 2v46a0 0 0 0 1 0 0h-48a0 0 0 0 1 0 0v-46a2 2 0 0 1 2-2z" fill="#ffc477"/><path d="m54 3h-2v31a8 8 0 0 1 -8 8h-36v9h48v-46a2 2 0 0 0 -2-2z" fill="#ffb655"/><path d="m61 51h-58a1 1 0 0 1 0-2h58a1 1 0 0 1 0 2z" fill="#ff9811"/><path d="m26 25 6-4 6 4v-22h-12z" fill="#8b5e3c"/><path d="m32 37-11 4v4.5a16 16 0 0 0 8.338 14.046l2.662 1.454 2.662-1.452a16 16 0 0 0 8.338-14.048v-4.5z" fill="#7ed63e"/><path d="m26.465 48.05a1 1 0 0 0 -1.414 1.414l4.242 4.243a1 1 0 0 0 1.414 0l9-9a1 1 0 0 0 -1.414-1.414l-8.293 8.293z" fill="#f1f2f2"/></g></svg>