<svg height="512" viewBox="0 0 64 64" width="512" xmlns="http://www.w3.org/2000/svg"><g id="Product"><path d="m45 47.577 5.856-3.377a3 3 0 0 0 1.1-4.1 3 3 0 0 0 -4.1-1.1l-9.856 5.691a8 8 0 0 0 -4 6.928v9.381h13v-3.515a6 6 0 0 1 1.757-4.242l6.723-6.723a7.934 7.934 0 0 0 2.07-3.59l3.33-12.42a3.007 3.007 0 0 0 -2.28-3.71 3.111 3.111 0 0 0 -3.55 2.32l-3.49 10.45" fill="#ffbcab"/><path d="m19 47.577-5.856-3.377a3 3 0 0 1 -1.1-4.1 3 3 0 0 1 4.1-1.1l9.856 5.691a8 8 0 0 1 4 6.928v9.381h-13v-3.515a6 6 0 0 0 -1.757-4.242l-6.723-6.723a7.934 7.934 0 0 1 -2.07-3.59l-3.33-12.42a3.007 3.007 0 0 1 2.28-3.71 3.111 3.111 0 0 1 3.55 2.32l3.49 10.45" fill="#ffbcab"/><path d="m46 3h-26a2 2 0 0 0 -2 2v28a2 2 0 0 0 2 2h26a2 2 0 0 0 2-2v-28a2 2 0 0 0 -2-2z" fill="#ffc477"/><path d="m46 3h-1v24a2 2 0 0 1 -2 2h-25v4a2 2 0 0 0 2 2h26a2 2 0 0 0 2-2v-28a2 2 0 0 0 -2-2z" fill="#ffb655"/><path d="m33 13 3 2v-12h-6v12z" fill="#8b5e3c"/><path d="m25 30a1 1 0 0 0 0 2h16a1 1 0 0 0 0-2h-2v-7.586l1.293 1.293a1 1 0 0 0 1.414-1.414l-3-3a1 1 0 0 0 -1.414 0l-3 3a1 1 0 1 0 1.414 1.414l1.293-1.293v7.586h-8v-7.586l1.293 1.293a1 1 0 0 0 1.414-1.414l-3-3a1 1 0 0 0 -1.414 0l-3 3a1 1 0 1 0 1.414 1.414l1.293-1.293v7.586z" fill="#d80027"/><path d="m46.951 45.2 5.332-3a2.974 2.974 0 0 0 -.329-2.1 2.935 2.935 0 0 0 -.394-.529z" fill="#ffbcab"/><path d="m45 47.577 5.856-3.377a2.983 2.983 0 0 0 .293-.21l-5.938 3.33z" fill="#ffbcab"/><g fill="#ff9478"><path d="m51.954 40.1a2.964 2.964 0 0 0 -1.03-1.042c.009.015.022.027.03.042a3 3 0 0 1 -1.1 4.1l-5.854 3.377 1 1 5.856-3.377a3 3 0 0 0 1.098-4.1z"/><path d="m12.046 40.1a2.964 2.964 0 0 1 1.03-1.042c-.009.015-.022.027-.03.042a3 3 0 0 0 1.1 4.1l5.854 3.377-1 1-5.856-3.377a3 3 0 0 1 -1.098-4.1z"/></g></g></svg>