<svg height="512" viewBox="0 0 64 64" width="512" xmlns="http://www.w3.org/2000/svg"><g id="Shopping"><path d="m15 51h44a2 2 0 0 0 2-2v-44a2 2 0 0 0 -2-2h-44a2 2 0 0 0 -2 2v44a2 2 0 0 0 2 2z" fill="#ffc477"/><path d="m59 3h-2v31a8 8 0 0 1 -8 8h-36v9h46a2 2 0 0 0 2-2v-44a2 2 0 0 0 -2-2z" fill="#ffb655"/><path d="m37 23 6 4v-24h-12v24z" fill="#8b5e3c"/><rect fill="#4e901e" height="28" rx="2" width="46" x="3" y="33"/><path d="m47 33h-2a2.006 2.006 0 0 1 2 2v24a2.006 2.006 0 0 1 -2 2h2a2.006 2.006 0 0 0 2-2v-24a2.006 2.006 0 0 0 -2-2z" fill="#447e1a"/><path d="m45 41v12a4 4 0 0 0 -4 4h-30a4 4 0 0 0 -4-4v-12a4 4 0 0 0 4-4h30a4 4 0 0 0 4 4z" fill="#7ed63e"/><circle cx="26" cy="47" fill="#f1f2f2" r="8"/><g fill="#4e901e"><path d="m27 53v-1.184a2.993 2.993 0 0 0 -1-5.816 1 1 0 1 1 1-1 1 1 0 0 0 2 0 3 3 0 0 0 -2-2.816v-1.184a1 1 0 0 0 -2 0v1.184a2.993 2.993 0 0 0 1 5.816 1 1 0 1 1 -1 1 1 1 0 0 0 -2 0 3 3 0 0 0 2 2.816v1.184a1 1 0 0 0 2 0z"/><path d="m40 46h-2a1 1 0 0 0 0 2h2a1 1 0 0 0 0-2z"/><path d="m14 46h-2a1 1 0 0 0 0 2h2a1 1 0 0 0 0-2z"/></g></g></svg>